G04 ================== begin FILE IDENTIFICATION RECORD ==================*
G04 Layout Name:  C:/USERS/USER/DOWNLOADS/ASDF/ORCAD/0312/allegro/ASTABLE-MV.brd*
G04 Film Name:    SST*
G04 File Format:  Gerber RS274X*
G04 File Origin:  Cadence Allegro 16.6-B033*
G04 Origin Date:  Tue Mar 12 10:56:39 2024*
G04 *
G04 Layer:  REF DES/SILKSCREEN_TOP*
G04 Layer:  PACKAGE GEOMETRY/SILKSCREEN_TOP*
G04 Layer:  BOARD GEOMETRY/OUTLINE*
G04 Layer:  BOARD GEOMETRY/SILKSCREEN_TOP*
G04 *
G04 Offset:    (0.000 0.000)*
G04 Mirror:    No*
G04 Mode:      Positive*
G04 Rotation:  0*
G04 FullContactRelief:  No*
G04 UndefLineWidth:     0.000*
G04 ================== end FILE IDENTIFICATION RECORD ====================*
%FSLAX54Y54*MOMM*%
%IR0*IPPOS*OFA0.00000B0.00000*MIA0B0*SFA1.00000B1.00000*%
%ADD10C,.3*%
%ADD11C,.5*%
G75*
%LPD*%
G75*
G54D10*
G01X0Y0D02*
X1000000D01*
Y700000D01*
X0D01*
Y0D01*
G54D11*
G01X142180Y647700D02*
X154560Y687320D01*
X166940Y647700D01*
G01X162490Y661570D02*
X146630D01*
G01X178880Y652980D02*
X182840Y649680D01*
X187300Y647700D01*
X191260D01*
X195220Y649680D01*
X198200Y652980D01*
X199680Y657610D01*
X198690Y662230D01*
X196210Y666190D01*
X191760Y668830D01*
X185810Y670150D01*
X182350Y672790D01*
X180860Y677410D01*
X181850Y682040D01*
X184330Y685340D01*
X187790Y687320D01*
X191260D01*
X194730Y686000D01*
X197700Y682700D01*
G01X224000Y687320D02*
Y647700D01*
G01X212610Y687320D02*
X235390D01*
G01X246340Y647700D02*
X258720Y687320D01*
X271100Y647700D01*
G01X266650Y661570D02*
X250790D01*
G01X297400Y668830D02*
X299380Y670810D01*
X300870Y674110D01*
X301860Y678740D01*
X300870Y682700D01*
X298890Y685340D01*
X295420Y687320D01*
X282050D01*
Y647700D01*
X298390D01*
X301860Y650340D01*
X303840Y654300D01*
X304830Y658930D01*
X303840Y663550D01*
X300870Y667510D01*
X297400Y668830D01*
X282050D01*
G01X318250Y687320D02*
Y647700D01*
X338070D01*
G01X372790D02*
X352970D01*
Y687320D01*
X372790D01*
G01X364860Y668170D02*
X352970D01*
G01X419440Y647700D02*
Y687320D01*
X432320Y654300D01*
X445200Y687320D01*
Y647700D01*
G01X460600Y660910D02*
X473480D01*
G01X489380Y687320D02*
X501760Y647700D01*
X514140Y687320D01*
G01X582100Y684020D02*
X579130Y686000D01*
X575660Y687320D01*
X571700D01*
X567240Y685340D01*
X563770Y682040D01*
X561290Y678070D01*
X559310Y671470D01*
X558820Y665530D01*
X559810Y659590D01*
X561290Y655620D01*
X564270Y651660D01*
X567730Y649020D01*
X571200Y647700D01*
X574670D01*
X578130Y649020D01*
X581110Y651000D01*
X583580Y653640D01*
G01X599980Y687320D02*
X611860D01*
G01X605920D02*
Y647700D01*
G01X599980D02*
X611860D01*
G01X630730D02*
Y687320D01*
X643120D01*
X647080Y685340D01*
X649560Y682700D01*
X650550Y677410D01*
X649560Y672130D01*
X646580Y668830D01*
X643120Y666850D01*
X630730D01*
G01X643120D02*
X650550Y647700D01*
G01X686260Y684020D02*
X683290Y686000D01*
X679820Y687320D01*
X675860D01*
X671400Y685340D01*
X667930Y682040D01*
X665450Y678070D01*
X663470Y671470D01*
X662980Y665530D01*
X663970Y659590D01*
X665450Y655620D01*
X668430Y651660D01*
X671890Y649020D01*
X675360Y647700D01*
X678830D01*
X682290Y649020D01*
X685270Y651000D01*
X687740Y653640D01*
G01X699180Y687320D02*
Y658930D01*
X701160Y652980D01*
X705130Y649020D01*
X710080Y647700D01*
X715030Y649020D01*
X719000Y652980D01*
X720980Y658930D01*
Y687320D01*
G01X738860D02*
X750740D01*
G01X744800D02*
Y647700D01*
G01X738860D02*
X750740D01*
G01X779520Y687320D02*
Y647700D01*
G01X768130Y687320D02*
X790910D01*
M02*
