G04 ================== begin FILE IDENTIFICATION RECORD ==================*
G04 Layout Name:  C:/USERS/USER/DOWNLOADS/ASDF/ORCAD/0312/allegro/ASTABLE-MV.brd*
G04 Film Name:    TOP*
G04 File Format:  Gerber RS274X*
G04 File Origin:  Cadence Allegro 16.6-B033*
G04 Origin Date:  Tue Mar 12 10:56:39 2024*
G04 *
G04 Layer:  ETCH/TOP*
G04 Layer:  PIN/TOP*
G04 Layer:  VIA CLASS/TOP*
G04 *
G04 Offset:    (0.000 0.000)*
G04 Mirror:    No*
G04 Mode:      Positive*
G04 Rotation:  0*
G04 FullContactRelief:  No*
G04 UndefLineWidth:     0.150*
G04 ================== end FILE IDENTIFICATION RECORD ====================*
%FSLAX54Y54*MOMM*%
%IR0*IPPOS*OFA0.00000B0.00000*MIA0B0*SFA1.00000B1.00000*%
%ADD11C,1.524*%
%ADD13C,1.651*%
%ADD10C,.635*%
%ADD12C,.889*%
%ADD14C,1.*%
%ADD15C,.5*%
G75*
%LPD*%
G75*
G54D10*
X50000Y50000D03*
Y650000D03*
X950000Y50000D03*
Y650000D03*
G54D11*
X152400Y139700D03*
Y114300D03*
X317500Y139700D03*
Y114300D03*
X393700Y368300D03*
Y342900D03*
X596900Y139700D03*
Y114300D03*
Y368300D03*
Y342900D03*
X774700Y139700D03*
Y114300D03*
X901700Y355600D03*
Y381000D03*
G54D12*
X177800Y292100D03*
X152400D03*
X165100D03*
X342900Y254000D03*
X368300D03*
X355600D03*
X609600Y228600D03*
Y254000D03*
Y241300D03*
X760600Y308000D03*
X786000D03*
X773300D03*
G54D13*
X152400Y482600D03*
Y584200D03*
X279400Y317500D03*
Y419100D03*
Y482600D03*
Y584200D03*
X406400Y482600D03*
Y584200D03*
X533400Y482600D03*
Y584200D03*
X660000Y306400D03*
Y408000D03*
X660400Y482600D03*
Y584200D03*
X774700Y482600D03*
Y584200D03*
G54D14*
G01X317500Y114300D02*
X152400D01*
G01Y584200D02*
X279400D01*
G01D02*
X406400D01*
G01X596900Y114300D02*
X317500D01*
G01X406400Y584200D02*
X533400D01*
G01X774700Y114300D02*
X596900D01*
G01X533400Y584200D02*
X660400D01*
G01D02*
X774700D01*
G01Y114300D02*
X788600D01*
X792300Y118000D01*
X872000D01*
X901700Y147700D01*
Y355600D01*
G01Y381000D02*
Y394900D01*
X900000Y396600D01*
Y558000D01*
X873800Y584200D01*
X774700D01*
G54D15*
G01X152400Y292100D02*
Y139700D01*
G01X165100Y292100D02*
Y469900D01*
X152400Y482600D01*
G01X177800Y292100D02*
X254000D01*
X279400Y317500D01*
G01Y419100D02*
Y482600D01*
G01X317500Y139700D02*
X328900D01*
X329200Y140000D01*
X352000D01*
X368300Y156300D01*
Y254000D01*
G01X342900D02*
Y262220D01*
X342000Y263120D01*
Y350000D01*
X360300Y368300D01*
X393700D01*
G01X596900Y342900D02*
X568000Y314000D01*
X366000D01*
X355600Y303600D01*
Y254000D01*
G01X406400Y482600D02*
Y390400D01*
X406000Y390000D01*
Y380600D01*
X393700Y368300D01*
G01X596900Y139700D02*
X626000Y168800D01*
Y245820D01*
X617820Y254000D01*
X609600D01*
G01X596900Y368300D02*
X620000Y345200D01*
Y334000D01*
X590000Y304000D01*
Y239980D01*
X601380Y228600D01*
X609600D01*
G01X596900Y368300D02*
Y439100D01*
X552960Y483040D01*
X545880D01*
X545440Y482600D01*
X533400D01*
G01X760600Y308000D02*
X673640D01*
X672040Y306400D01*
X660000D01*
G01X660400Y482600D02*
Y420440D01*
X660000Y420040D01*
Y408000D01*
G01X786000Y308000D02*
Y151000D01*
X774700Y139700D01*
G01X773300Y308000D02*
Y469160D01*
X774700Y470560D01*
Y482600D01*
M02*
