G04 ================== begin FILE IDENTIFICATION RECORD ==================*
G04 Layout Name:  D:/30602/0326/allegro/DNJEH.brd*
G04 Film Name:    BOTTOM*
G04 File Format:  Gerber RS274X*
G04 File Origin:  Cadence Allegro 16.6-B033*
G04 Origin Date:  Tue Mar 26 09:46:10 2024*
G04 *
G04 Layer:  BOARD GEOMETRY/OUTLINE*
G04 Layer:  ETCH/BOTTOM*
G04 Layer:  PIN/BOTTOM*
G04 Layer:  VIA CLASS/BOTTOM*
G04 *
G04 Offset:    (0.000 0.000)*
G04 Mirror:    No*
G04 Mode:      Positive*
G04 Rotation:  0*
G04 FullContactRelief:  No*
G04 UndefLineWidth:     0.000*
G04 ================== end FILE IDENTIFICATION RECORD ====================*
%FSLAX25Y25*MOMM*%
%IR0*IPPOS*OFA0.00000B0.00000*MIA0B0*SFA1.00000B1.00000*%
%ADD13C,1.524*%
%ADD11C,1.651*%
%ADD12R,1.524X1.524*%
%ADD10C,.635*%
%ADD14C,.889*%
%ADD15C,1.*%
%ADD16C,.3*%
%ADD19C,2.036*%
%ADD17C,2.164*%
%ADD18R,2.528X2.528*%
G75*
%LPD*%
G75*
G36*
G01X754200Y505100D02*
Y754200D01*
X505100D01*
G02X500000Y759300I0J5100D01*
G01Y6240700D01*
G02X505100Y6245800I5100J0D01*
G01X754200D01*
Y6494900D01*
G02X759300Y6500000I5100J0D01*
G01X6240700D01*
G02X6245800Y6494900I0J-5100D01*
G01Y6245800D01*
X6494900D01*
G02X6500000Y6240700I0J-5100D01*
G01Y759300D01*
G02X6494900Y754200I-5100J0D01*
G01X6245800D01*
Y505100D01*
G02X6240700Y500000I-5100J0D01*
G01X759300D01*
G02X754200Y505100I0J5100D01*
G37*
%LPC*%
G75*
G36*
G01X5122900Y3119600D02*
G03Y3103400I6251J-8100D01*
G02X5037100I-42900J-55400D01*
G03Y3119600I-6251J8100D01*
G02Y3230400I42900J55400D01*
G03Y3246600I-6251J8100D01*
G02X5122900I42900J55400D01*
G03Y3230400I6251J-8100D01*
G02Y3119600I-42900J-55400D01*
G37*
G36*
G01X2582900Y2865600D02*
G03Y2849400I6251J-8100D01*
G02X2497100I-42900J-55400D01*
G03Y2865600I-6251J8100D01*
G02Y2976400I42900J55400D01*
G03Y2992600I-6251J8100D01*
G02X2582900I42900J55400D01*
G03Y2976400I6251J-8100D01*
G02Y2865600I-42900J-55400D01*
G37*
G54D19*
X2286000Y2514600D03*
X3048000Y3556000D03*
Y4318000D03*
X4572000Y3556000D03*
Y4318000D03*
X5334000Y2514600D03*
G54D17*
X1778000Y5080000D03*
Y6096000D03*
X3302000Y5080000D03*
Y6096000D03*
X4318000Y5080000D03*
Y6096000D03*
X5334000Y5080000D03*
Y6096000D03*
G54D18*
X2286000Y1524000D03*
X5334000D03*
%LPD*%
G75*
G54D10*
X500000Y500000D03*
Y6500000D03*
X6500000Y500000D03*
Y6500000D03*
G54D11*
X1778000Y5080000D03*
Y6096000D03*
X3302000Y5080000D03*
Y6096000D03*
X4318000Y5080000D03*
Y6096000D03*
X5334000Y5080000D03*
Y6096000D03*
G54D12*
X2286000Y1524000D03*
X5334000D03*
G54D13*
X2286000Y2514600D03*
X3048000Y3556000D03*
Y4318000D03*
X4572000Y3556000D03*
Y4318000D03*
X5334000Y2514600D03*
G54D14*
X2540000Y2794000D03*
Y2921000D03*
Y3048000D03*
X5080000D03*
Y3302000D03*
Y3175000D03*
G54D15*
G01X2154500Y1524000D02*
X2286000D01*
G01Y1392500D02*
Y1524000D01*
G01D02*
Y1655500D01*
G01Y1524000D02*
X2417500D01*
G01X5202500D02*
X5334000D01*
G01Y1392500D02*
Y1524000D01*
G01D02*
Y1655500D01*
G01Y1524000D02*
X5465500D01*
G54D16*
G01X0Y0D02*
X7000000D01*
Y7000000D01*
X0D01*
Y0D01*
M02*
