G04 ================== begin FILE IDENTIFICATION RECORD ==================*
G04 Layout Name:  D:/30602/0326/allegro/DNJEH.brd*
G04 Film Name:    SST*
G04 File Format:  Gerber RS274X*
G04 File Origin:  Cadence Allegro 16.6-B033*
G04 Origin Date:  Tue Mar 26 09:45:30 2024*
G04 *
G04 Layer:  REF DES/SILKSCREEN_TOP*
G04 Layer:  PACKAGE GEOMETRY/SILKSCREEN_TOP*
G04 Layer:  BOARD GEOMETRY/OUTLINE*
G04 Layer:  BOARD GEOMETRY/DIMENSION*
G04 Layer:  BOARD GEOMETRY/SILKSCREEN_TOP*
G04 *
G04 Offset:    (0.000 0.000)*
G04 Mirror:    No*
G04 Mode:      Positive*
G04 Rotation:  0*
G04 FullContactRelief:  No*
G04 UndefLineWidth:     0.000*
G04 ================== end FILE IDENTIFICATION RECORD ====================*
%FSLAX25Y25*MOMM*%
%IR0*IPPOS*OFA0.00000B0.00000*MIA0B0*SFA1.00000B1.00000*%
%ADD10C,.3*%
%ADD11C,.5*%
G75*
%LPD*%
G75*
G54D10*
G01X0Y0D02*
X7000000D01*
Y7000000D01*
X0D01*
Y0D01*
G54D11*
G01X2777800Y6850000D02*
Y6350000D01*
G01Y6425000D02*
X2757900Y6383300D01*
X2728200Y6358300D01*
X2693600Y6350000D01*
X2653900Y6366700D01*
X2624200Y6408300D01*
X2604400Y6458300D01*
X2599400Y6516700D01*
X2604400Y6575000D01*
X2624200Y6625000D01*
X2653900Y6666700D01*
X2693600Y6683300D01*
X2728200Y6675000D01*
X2753000Y6658300D01*
X2777800Y6625000D01*
G01X2906600Y6350000D02*
Y6683300D01*
G01Y6600000D02*
X2926400Y6641700D01*
X2956100Y6675000D01*
X2995800Y6683300D01*
X3030400Y6675000D01*
X3060100Y6641700D01*
X3075000Y6583300D01*
Y6350000D01*
G01X3213700Y6225000D02*
X3248400Y6191700D01*
X3278100Y6183300D01*
X3317800Y6200000D01*
X3347500Y6241700D01*
X3362300Y6316700D01*
Y6683300D01*
G01Y6816700D02*
X3352400Y6825000D01*
Y6841700D01*
X3362300Y6850000D01*
X3372300Y6841700D01*
Y6825000D01*
X3362300Y6816700D01*
G01X3520900Y6575000D02*
X3679400D01*
X3664500Y6633300D01*
X3639800Y6666700D01*
X3605100Y6683300D01*
X3570400Y6675000D01*
X3540700Y6650000D01*
X3520900Y6591700D01*
X3511000Y6541700D01*
Y6491700D01*
X3520900Y6441700D01*
X3545700Y6391700D01*
X3575400Y6358300D01*
X3610100Y6350000D01*
X3644700Y6366700D01*
X3679400Y6416700D01*
G01X3813200Y6350000D02*
Y6850000D01*
G01Y6608300D02*
X3838000Y6650000D01*
X3862700Y6675000D01*
X3902400Y6683300D01*
X3932100Y6675000D01*
X3966700Y6641700D01*
X3981600Y6591700D01*
Y6350000D01*
M02*
