G04 ================== begin FILE IDENTIFICATION RECORD ==================*
G04 Layout Name:  D:/30602/PWM-CIRCUIT/allegro/PWM-CIRCUIT.brd*
G04 Film Name:    SMT*
G04 File Format:  Gerber RS274X*
G04 File Origin:  Cadence Allegro 16.6-B033*
G04 Origin Date:  Tue Mar 19 10:52:12 2024*
G04 *
G04 Layer:  VIA CLASS/SOLDERMASK_TOP*
G04 Layer:  PIN/SOLDERMASK_TOP*
G04 Layer:  BOARD GEOMETRY/OUTLINE*
G04 *
G04 Offset:    (0.000 0.000)*
G04 Mirror:    No*
G04 Mode:      Positive*
G04 Rotation:  0*
G04 FullContactRelief:  No*
G04 UndefLineWidth:     0.000*
G04 ================== end FILE IDENTIFICATION RECORD ====================*
%FSLAX54Y54*MOMM*%
%IR0*IPPOS*OFA0.00000B0.00000*MIA0B0*SFA1.00000B1.00000*%
%ADD13C,2.032*%
%ADD14C,1.143*%
%ADD11C,1.905*%
%ADD10C,3.683*%
%ADD12R,1.905X1.905*%
%ADD15C,.3*%
G75*
%LPD*%
G75*
G54D10*
X50000Y50000D03*
Y650000D03*
X950000Y50000D03*
Y650000D03*
G54D11*
X50000Y199200D03*
Y224600D03*
Y474600D03*
X203200Y139700D03*
X190500Y292100D03*
Y317500D03*
Y342900D03*
Y508000D03*
X254000Y139700D03*
X228600Y165100D03*
X266700Y292100D03*
Y317500D03*
Y342900D03*
Y368300D03*
Y508000D03*
X355600Y304800D03*
X345440Y355600D03*
X431800Y304800D03*
X510540Y190500D03*
X508000Y292100D03*
Y317500D03*
Y342900D03*
X520700Y584200D03*
X584200Y292100D03*
Y317500D03*
Y342900D03*
Y368300D03*
X571500Y584200D03*
X546100Y558800D03*
X673100Y292100D03*
Y317500D03*
Y342900D03*
X660400Y508000D03*
X685800Y139700D03*
X749300Y292100D03*
Y317500D03*
Y342900D03*
Y368300D03*
X736600Y508000D03*
X762000Y139700D03*
X812800Y292100D03*
Y317500D03*
Y342900D03*
X889000Y292100D03*
Y317500D03*
Y342900D03*
Y368300D03*
X950000Y375400D03*
G54D12*
X50000Y250000D03*
Y500000D03*
X190500Y368300D03*
X444500Y355600D03*
X508000Y368300D03*
X609600Y190500D03*
X673100Y368300D03*
X812800D03*
X950000Y350000D03*
G54D13*
X177800Y203200D03*
Y571500D03*
X279400Y203200D03*
Y571500D03*
X342900Y139700D03*
Y190500D03*
X330200Y508000D03*
Y571500D03*
X444500Y139700D03*
Y190500D03*
X431800Y508000D03*
Y571500D03*
X508000Y139700D03*
X495300Y508000D03*
X596900D03*
X609600Y139700D03*
X673100Y190500D03*
X647700Y571500D03*
X749300D03*
X800100Y139700D03*
X774700Y190500D03*
X800100D03*
X787400Y508000D03*
X901700Y139700D03*
Y190500D03*
X889000Y508000D03*
G54D14*
X406400Y431800D03*
X381000D03*
X393700D03*
G54D15*
G01X0Y0D02*
X1000000D01*
Y700000D01*
X0D01*
Y0D01*
M02*
