G04 ================== begin FILE IDENTIFICATION RECORD ==================*
G04 Layout Name:  D:/30602/PWM-CIRCUIT/allegro/PWM-CIRCUIT.brd*
G04 Film Name:    TOP*
G04 File Format:  Gerber RS274X*
G04 File Origin:  Cadence Allegro 16.6-B033*
G04 Origin Date:  Tue Mar 19 10:52:12 2024*
G04 *
G04 Layer:  BOARD GEOMETRY/OUTLINE*
G04 Layer:  ETCH/TOP*
G04 Layer:  PIN/TOP*
G04 Layer:  VIA CLASS/TOP*
G04 *
G04 Offset:    (0.000 0.000)*
G04 Mirror:    No*
G04 Mode:      Positive*
G04 Rotation:  0*
G04 FullContactRelief:  No*
G04 UndefLineWidth:     0.000*
G04 ================== end FILE IDENTIFICATION RECORD ====================*
%FSLAX54Y54*MOMM*%
%IR0*IPPOS*OFA0.00000B0.00000*MIA0B0*SFA1.00000B1.00000*%
%ADD11C,1.524*%
%ADD13C,1.651*%
%ADD12R,1.524X1.524*%
%ADD10C,.635*%
%ADD14C,.889*%
%ADD15C,1.*%
%ADD16C,.3*%
%ADD17C,.5*%
G75*
%LPD*%
G75*
G54D10*
X50000Y50000D03*
Y650000D03*
X950000Y50000D03*
Y650000D03*
G54D11*
X50000Y199200D03*
Y224600D03*
Y474600D03*
X203200Y139700D03*
X190500Y292100D03*
Y317500D03*
Y342900D03*
Y508000D03*
X254000Y139700D03*
X228600Y165100D03*
X266700Y292100D03*
Y317500D03*
Y342900D03*
Y368300D03*
Y508000D03*
X355600Y304800D03*
X345440Y355600D03*
X431800Y304800D03*
X510540Y190500D03*
X508000Y292100D03*
Y317500D03*
Y342900D03*
X520700Y584200D03*
X584200Y292100D03*
Y317500D03*
Y342900D03*
Y368300D03*
X571500Y584200D03*
X546100Y558800D03*
X673100Y292100D03*
Y317500D03*
Y342900D03*
X660400Y508000D03*
X685800Y139700D03*
X749300Y292100D03*
Y317500D03*
Y342900D03*
Y368300D03*
X736600Y508000D03*
X762000Y139700D03*
X812800Y292100D03*
Y317500D03*
Y342900D03*
X889000Y292100D03*
Y317500D03*
Y342900D03*
Y368300D03*
X950000Y375400D03*
G54D12*
X50000Y250000D03*
Y500000D03*
X190500Y368300D03*
X444500Y355600D03*
X508000Y368300D03*
X609600Y190500D03*
X673100Y368300D03*
X812800D03*
X950000Y350000D03*
G54D13*
X177800Y203200D03*
Y571500D03*
X279400Y203200D03*
Y571500D03*
X342900Y139700D03*
Y190500D03*
X330200Y508000D03*
Y571500D03*
X444500Y139700D03*
Y190500D03*
X431800Y508000D03*
Y571500D03*
X508000Y139700D03*
X495300Y508000D03*
X596900D03*
X609600Y139700D03*
X673100Y190500D03*
X647700Y571500D03*
X749300D03*
X800100Y139700D03*
X774700Y190500D03*
X800100D03*
X787400Y508000D03*
X901700Y139700D03*
Y190500D03*
X889000Y508000D03*
G54D14*
X406400Y431800D03*
X381000D03*
X393700D03*
G54D15*
G01X190500Y292100D02*
X146100D01*
X144000Y290000D01*
X140800D01*
X50000Y199200D01*
G01X279400Y203200D02*
X291600Y215400D01*
Y318000D01*
X266700Y342900D01*
G01X508000Y139700D02*
X556000Y187700D01*
Y244100D01*
X508000Y292100D01*
G01X889000Y342900D02*
X841900Y390000D01*
X792000D01*
X764460Y362460D01*
Y362010D01*
X759130Y356680D01*
Y352730D01*
X749300Y342900D01*
G54D16*
G01X0Y0D02*
X1000000D01*
Y700000D01*
X0D01*
Y0D01*
G54D17*
G01X177800Y571500D02*
X165760D01*
X164260Y570000D01*
X74000D01*
X50000Y546000D01*
Y500000D01*
G01X254000Y139700D02*
X226300Y112000D01*
X196000D01*
X177800Y130200D01*
Y203200D01*
G01X228600Y165100D02*
Y270600D01*
X230000Y272000D01*
Y278000D01*
X190500Y317500D01*
G01X330200Y508000D02*
X314200Y492000D01*
X272000D01*
X230000Y450000D01*
Y360000D01*
X212900Y342900D01*
X190500D01*
G01X406400Y431800D02*
Y440020D01*
X408000Y441620D01*
Y514000D01*
X392000Y530000D01*
X288700D01*
X266700Y508000D01*
G01X660400D02*
X684000Y531600D01*
Y596000D01*
X664000Y616000D01*
X296000D01*
X279400Y599400D01*
Y571500D01*
G01X342900Y139700D02*
Y190500D01*
G01X406400Y431800D02*
Y249000D01*
X401400Y244000D01*
X396400D01*
X342900Y190500D01*
G01X444500D02*
Y287500D01*
X444000Y288000D01*
Y292600D01*
X431800Y304800D01*
G01X444500Y355600D02*
Y323500D01*
X446000Y322000D01*
Y319000D01*
X431800Y304800D01*
G01X647700Y571500D02*
X622340Y596860D01*
X420860D01*
X412000Y588000D01*
Y527800D01*
X431800Y508000D01*
G01X495300D02*
Y529300D01*
X496000Y530000D01*
Y550000D01*
X474500Y571500D01*
X431800D01*
G01X508000Y342900D02*
X488000Y322900D01*
Y213040D01*
X510540Y190500D01*
G01X508000Y342900D02*
X558800D01*
X584200Y317500D01*
G01X520700Y584200D02*
Y572800D01*
X522000Y571500D01*
Y474000D01*
X609600Y386400D01*
Y190500D01*
G01X596900Y508000D02*
Y520040D01*
X598000Y521140D01*
Y540000D01*
X579200Y558800D01*
X546100D01*
G01X609600Y139700D02*
X685800D01*
G01X609600D02*
Y190500D01*
G01X673100D02*
X692000Y209400D01*
Y324000D01*
X673100Y342900D01*
G01X660400Y508000D02*
X692200Y476200D01*
Y362000D01*
X673100Y342900D01*
G01X774700Y190500D02*
Y202540D01*
X778000Y205840D01*
Y310000D01*
X770500Y317500D01*
X749300D01*
G01D02*
X722600Y344200D01*
Y494000D01*
X736600Y508000D01*
G01X812800Y317500D02*
X840000Y290300D01*
Y179600D01*
X800100Y139700D01*
G01X774700Y190500D02*
X800100D01*
G01X901700D02*
X889660D01*
X889160Y190000D01*
X868000D01*
X856000Y202000D01*
Y328000D01*
X841100Y342900D01*
X812800D01*
G01X889000Y317500D02*
X922000Y284500D01*
Y160000D01*
X901700Y139700D01*
G01X889000Y317500D02*
X915500D01*
X916000Y318000D01*
X918000D01*
X950000Y350000D01*
M02*
